<svg width="168" height="38" viewBox="0 0 168 38" fill="none" xmlns="http://www.w3.org/2000/svg">
<g clip-path="url(#clip0)">
<path d="M49.771 23.5611C49.771 23.8297 49.8477 24.0599 50.0012 24.2902C50.1547 24.5204 50.3466 24.7123 50.5768 24.8658C50.807 25.0193 51.114 25.1728 51.421 25.2495C51.728 25.3263 52.0734 25.403 52.4571 25.403C53.4548 25.403 54.2223 25.2495 54.6828 24.9425C55.1433 24.6355 55.4119 24.2518 55.4119 23.7146C55.4119 23.446 55.3351 23.1773 55.1433 22.9855C54.9514 22.7936 54.7212 22.6401 54.3758 22.525C54.0304 22.4099 53.6467 22.2948 53.1478 22.1796C52.6874 22.0645 52.1117 21.9878 51.4978 21.8726C51.1908 21.8343 50.8838 21.7575 50.5384 21.7191C50.1931 21.6424 49.8861 21.5657 49.5407 21.4505C49.1954 21.3354 48.8884 21.1819 48.5814 20.99C48.2744 20.7982 48.0058 20.5679 47.7755 20.3377C47.5453 20.0691 47.3534 19.7621 47.2383 19.3784C47.0848 18.9946 47.0464 18.5725 47.0464 18.0736C47.0464 17.4597 47.1615 16.8841 47.3918 16.3852C47.622 15.8863 47.9674 15.4259 48.4662 15.0421C48.9267 14.6584 49.5407 14.3898 50.3082 14.1595C51.0373 13.9677 51.9199 13.8525 52.956 13.8525C53.7618 13.8525 54.4909 13.9677 55.1433 14.1595C55.7956 14.3514 56.3329 14.6584 56.7933 15.0421C57.2538 15.4259 57.5992 15.848 57.8294 16.3852C58.0597 16.8841 58.2132 17.4597 58.2132 18.0736H55.0281C54.9898 17.6132 54.7595 17.2294 54.3758 16.9224C53.9537 16.6154 53.4165 16.462 52.7257 16.462C52.2652 16.462 51.9199 16.5003 51.5745 16.6154C51.2675 16.6922 50.9989 16.8073 50.807 16.9608C50.6152 17.1143 50.4617 17.2678 50.3466 17.4597C50.2314 17.6515 50.1931 17.8434 50.1931 18.0736C50.1931 18.3039 50.2698 18.5341 50.3849 18.6876C50.5001 18.8411 50.7303 18.9946 50.9605 19.1097C51.1908 19.2249 51.5361 19.3016 51.9583 19.3784C52.342 19.4551 52.8409 19.5318 53.3781 19.5702C54.0304 19.6853 54.6828 19.8005 55.2968 19.954C55.9491 20.1075 56.4863 20.3377 56.9852 20.6063C57.4841 20.8749 57.8678 21.2587 58.1748 21.7191C58.4818 22.1796 58.6353 22.7936 58.6353 23.5227C58.6353 24.2902 58.4818 24.9425 58.1748 25.4798C57.8678 26.0554 57.4457 26.5159 56.8701 26.8612C56.2945 27.245 55.6421 27.5136 54.8747 27.7054C54.1072 27.8973 53.2246 27.9741 52.2652 27.9741C51.3059 27.9741 50.4617 27.8589 49.771 27.5903C49.0419 27.3217 48.4662 26.9763 48.0058 26.5542C47.5453 26.1321 47.1615 25.6716 46.9313 25.1344C46.7011 24.5972 46.5859 24.0599 46.5859 23.5227L49.771 23.5611Z" fill="#042560"/>
<path d="M66.8857 25.2496C67.4613 25.2496 67.9218 25.1728 68.3823 25.0193C68.8044 24.8658 69.1882 24.6356 69.4951 24.3286C69.8021 24.0216 70.0324 23.5995 70.1859 23.1007C70.3394 22.6018 70.4161 21.9878 70.4161 21.2587V14.2363H73.6011V21.2971C73.6011 22.4867 73.4476 23.4844 73.1023 24.3286C72.7569 25.1728 72.3348 25.8636 71.7208 26.4008C71.1452 26.938 70.4161 27.3218 69.6103 27.5904C68.8044 27.859 67.8834 27.9741 66.9241 27.9741C65.9648 27.9741 65.0438 27.859 64.2379 27.5904C63.4321 27.3218 62.703 26.938 62.1274 26.4008C61.5518 25.8636 61.0913 25.1728 60.7459 24.3286C60.4006 23.4844 60.2471 22.4867 60.2471 21.2971V14.2363H63.4321V21.2203C63.4321 21.9494 63.5088 22.5634 63.6623 23.0623C63.8158 23.5611 64.0461 23.9832 64.3531 24.2902C64.66 24.5972 65.0054 24.8658 65.4659 25.0193C65.8113 25.1728 66.3101 25.2496 66.8857 25.2496Z" fill="#042560"/>
<path d="M75.4814 20.9134C75.4814 19.954 75.6349 19.0331 75.9803 18.1505C76.3257 17.3063 76.8245 16.5388 77.4385 15.8864C78.0525 15.2341 78.82 14.7352 79.7026 14.3515C80.5851 13.9677 81.5829 13.7759 82.6573 13.7759C83.1562 13.7759 83.655 13.8143 84.1155 13.9294C84.576 14.0445 84.9981 14.1596 85.4202 14.3131C85.804 14.4666 86.1877 14.6968 86.5331 14.9271C86.8784 15.1573 87.1854 15.3876 87.4157 15.6562L87.6075 14.198H90.3321V27.5137H87.6075L87.4157 26.0555C87.147 26.3241 86.8401 26.5543 86.4947 26.7846C86.1493 27.0148 85.804 27.2067 85.3819 27.3602C84.9981 27.5137 84.576 27.6672 84.1155 27.7439C83.655 27.859 83.1946 27.8974 82.6573 27.8974C81.5829 27.8974 80.6235 27.7055 79.7409 27.3602C78.8583 26.9764 78.0909 26.4776 77.4769 25.8636C76.8629 25.2112 76.364 24.4821 76.0187 23.5995C75.6349 22.8321 75.4814 21.9111 75.4814 20.9134ZM78.6281 20.9134C78.6281 21.5657 78.7432 22.1413 78.9735 22.6786C79.2037 23.2158 79.5107 23.6763 79.8944 24.06C80.2782 24.4438 80.7386 24.7508 81.2759 24.9426C81.8131 25.1729 82.3503 25.2496 82.9643 25.2496C83.5399 25.2496 84.1155 25.1345 84.6528 24.9426C85.19 24.7124 85.6121 24.4438 86.0342 24.06C86.4179 23.6763 86.7249 23.2158 86.9552 22.6786C87.1854 22.1413 87.3005 21.5657 87.3005 20.9134C87.3005 20.2994 87.1854 19.6854 86.9552 19.1866C86.7249 18.6493 86.4179 18.1889 86.0342 17.8051C85.6505 17.4214 85.19 17.1144 84.6528 16.9225C84.1155 16.6923 83.5783 16.6155 82.9643 16.6155C82.3503 16.6155 81.8131 16.7307 81.2759 16.9225C80.7386 17.1528 80.3165 17.4214 79.8944 17.8051C79.5107 18.1889 79.2037 18.6493 78.9735 19.1866C78.7432 19.6854 78.6281 20.2994 78.6281 20.9134Z" fill="#042560"/>
<path d="M93.5557 9.32471H96.7407V27.5906H93.5557V9.32471Z" fill="#042560"/>
<path d="M99.8486 9.32471H103.034V27.5906H99.8486V9.32471Z" fill="#042560"/>
<path d="M105.374 20.9134C105.374 19.954 105.528 19.0331 105.873 18.1505C106.218 17.3063 106.717 16.5388 107.331 15.8864C107.945 15.2341 108.713 14.7352 109.595 14.3515C110.478 13.9677 111.475 13.7759 112.55 13.7759C113.049 13.7759 113.548 13.8143 114.008 13.9294C114.469 14.0445 114.891 14.1596 115.313 14.3131C115.697 14.4666 116.08 14.6968 116.426 14.9271C116.771 15.1573 117.078 15.3876 117.308 15.6562L117.5 14.198H120.225V27.5137H117.5L117.308 26.0555C117.04 26.3241 116.733 26.5543 116.387 26.7846C116.042 27.0148 115.697 27.2067 115.274 27.3602C114.891 27.5137 114.469 27.6672 114.008 27.7439C113.548 27.859 113.087 27.8974 112.55 27.8974C111.475 27.8974 110.516 27.7055 109.634 27.3602C108.751 26.9764 107.983 26.4776 107.369 25.8636C106.755 25.2112 106.257 24.4821 105.911 23.5995C105.566 22.8321 105.374 21.9111 105.374 20.9134ZM108.559 20.9134C108.559 21.5657 108.674 22.1413 108.904 22.6786C109.135 23.2158 109.442 23.6763 109.825 24.06C110.209 24.4438 110.67 24.7508 111.207 24.9426C111.744 25.1729 112.281 25.2496 112.895 25.2496C113.471 25.2496 114.046 25.1345 114.584 24.9426C115.121 24.7124 115.543 24.4438 115.965 24.06C116.349 23.6763 116.656 23.2158 116.886 22.6786C117.116 22.1413 117.231 21.5657 117.231 20.9134C117.231 20.2994 117.116 19.6854 116.886 19.1866C116.656 18.6493 116.349 18.1889 115.965 17.8051C115.581 17.4214 115.121 17.1144 114.584 16.9225C114.046 16.6923 113.509 16.6155 112.895 16.6155C112.281 16.6155 111.744 16.7307 111.207 16.9225C110.67 17.1144 110.247 17.4214 109.825 17.8051C109.442 18.1889 109.135 18.6493 108.904 19.1866C108.674 19.6854 108.559 20.2994 108.559 20.9134Z" fill="#042560"/>
<path d="M132.236 16.9992H130.662C130.049 16.9992 129.473 17.076 128.974 17.2679C128.475 17.4597 128.053 17.69 127.708 18.0737C127.362 18.4191 127.094 18.8412 126.902 19.3784C126.71 19.9156 126.633 20.4912 126.633 21.182V27.552H123.448V14.2363H126.019L126.288 15.848C126.748 15.3875 127.324 15.0038 128.015 14.6968C128.705 14.3898 129.511 14.2363 130.471 14.2363H132.236V16.9992Z" fill="#042560"/>
<path d="M133.464 26.1707C133.464 25.9405 133.502 25.7103 133.579 25.48C133.656 25.2498 133.809 25.0963 133.963 24.9044C134.116 24.7509 134.308 24.5974 134.538 24.5207C134.769 24.4439 134.999 24.3672 135.306 24.3672C135.574 24.3672 135.843 24.4056 136.073 24.5207C136.304 24.5974 136.495 24.7509 136.649 24.9044C136.802 25.0579 136.956 25.2498 137.033 25.48C137.109 25.7103 137.148 25.9021 137.148 26.1707C137.148 26.401 137.109 26.6312 137.033 26.8615C136.956 27.0917 136.802 27.2452 136.649 27.4371C136.495 27.5906 136.304 27.7057 136.073 27.8208C135.843 27.8976 135.613 27.9743 135.306 27.9743C135.037 27.9743 134.769 27.9359 134.538 27.8208C134.308 27.7441 134.116 27.5906 133.963 27.4371C133.809 27.2836 133.656 27.0917 133.579 26.8615C133.541 26.6312 133.464 26.401 133.464 26.1707Z" fill="#042560"/>
<path d="M139.066 20.9134C139.066 19.954 139.22 19.0331 139.565 18.1505C139.911 17.3063 140.409 16.5388 141.023 15.8864C141.637 15.2341 142.405 14.7352 143.288 14.3515C144.17 13.9677 145.168 13.7759 146.242 13.7759C146.741 13.7759 147.24 13.8143 147.7 13.9294C148.161 14.0445 148.583 14.1596 149.005 14.3131C149.389 14.4666 149.773 14.6968 150.118 14.9271C150.463 15.1573 150.77 15.3876 151.001 15.6562L151.193 14.198H153.917V27.5137H151.193L151.001 26.0555C150.732 26.3241 150.425 26.5543 150.08 26.7846C149.734 27.0148 149.389 27.2067 148.967 27.3602C148.583 27.5137 148.161 27.6672 147.7 27.7439C147.24 27.859 146.78 27.8974 146.242 27.8974C145.168 27.8974 144.208 27.7055 143.326 27.3602C142.443 26.9764 141.676 26.4776 141.062 25.8636C140.448 25.2112 139.949 24.4821 139.604 23.5995C139.22 22.8321 139.066 21.9111 139.066 20.9134ZM142.251 20.9134C142.251 21.5657 142.367 22.1413 142.597 22.6786C142.827 23.2158 143.134 23.6763 143.518 24.06C143.901 24.4438 144.362 24.7508 144.899 24.9426C145.436 25.1729 145.974 25.2496 146.588 25.2496C147.163 25.2496 147.739 25.1345 148.276 24.9426C148.813 24.7124 149.235 24.4438 149.658 24.06C150.041 23.6763 150.348 23.2158 150.579 22.6786C150.809 22.1413 150.924 21.5657 150.924 20.9134C150.924 20.2994 150.809 19.6854 150.579 19.1866C150.348 18.6493 150.041 18.1889 149.658 17.8051C149.274 17.4214 148.813 17.1144 148.276 16.9225C147.739 16.6923 147.202 16.6155 146.588 16.6155C145.974 16.6155 145.436 16.7307 144.899 16.9225C144.362 17.1144 143.94 17.4214 143.518 17.8051C143.134 18.1889 142.827 18.6493 142.597 19.1866C142.328 19.6854 142.251 20.2994 142.251 20.9134Z" fill="#042560"/>
<path d="M155.951 25.5949L163.204 16.9609H156.335V14.2363H167.694V16.2701L160.48 24.8658H168.001V27.5904H155.913V25.5949H155.951Z" fill="#042560"/>
<path d="M37.3376 18.6496C37.3376 28.9721 28.9721 37.2992 18.688 37.2992C8.40384 37.2992 0 28.9721 0 18.6496C0 8.32709 8.36547 0 18.6496 0C28.9338 0 37.3376 8.36546 37.3376 18.6496Z" fill="#3E7AFF"/>
<path d="M23.375 27.3711C22.0602 28.6858 20.351 29.2994 18.6857 29.2994C17.0203 29.2994 15.2673 28.642 13.9964 27.3711C13.0322 26.4069 12.3749 25.1798 12.1557 23.8212C11.9366 22.5065 12.1119 21.1479 12.6378 19.9208L12.7693 19.614L14.3032 21.1479L14.2593 21.2794C13.7334 22.9447 14.1717 24.7416 15.3988 25.9687C17.2395 27.8093 20.1757 27.8093 22.0164 25.9687C22.8929 25.0922 23.375 23.9089 23.375 22.6818C23.375 21.4109 22.8929 20.2714 22.0164 19.3949L17.853 15.2315L19.2554 13.8291L23.4188 17.9925C26.0045 20.5782 26.0045 24.7854 23.375 27.3711Z" fill="white"/>
<path d="M24.7769 17.3786L24.6454 17.6854L23.1115 16.1515L23.1554 16.02C23.6374 14.3546 23.1992 12.6016 21.9721 11.3745C20.1314 9.53388 17.1951 9.53388 15.3545 11.3745C13.5577 13.1714 13.5577 16.1515 15.3983 17.9483L19.5617 22.1117L18.1593 23.5141L13.9959 19.3507C11.4102 16.765 11.4102 12.514 13.9959 9.92831C15.3107 8.61355 17.0198 8 18.6852 8C20.3944 8 22.1036 8.65738 23.3745 9.92831C24.3386 10.8925 24.996 12.1196 25.2151 13.4781C25.4781 14.8367 25.3028 16.1515 24.7769 17.3786Z" fill="white"/>
<path d="M18.0714 13.0402C18.0714 13.3032 17.9838 13.5661 17.7646 13.7414C17.5893 13.9167 17.3264 14.0482 17.0634 14.0482C16.8005 14.0482 16.5375 13.9605 16.3622 13.7414C15.9678 13.347 15.9678 12.7334 16.3622 12.339C16.5375 12.1637 16.8005 12.0322 17.0634 12.0322C17.3264 12.0322 17.5893 12.1199 17.7646 12.339C17.9399 12.5143 18.0714 12.7773 18.0714 13.0402Z" fill="white"/>
<path d="M21.008 25.0044C20.9204 25.092 20.7889 25.1797 20.7012 25.2235C20.5698 25.2673 20.4383 25.3112 20.3068 25.3112C20.0439 25.3112 19.7809 25.2235 19.6056 25.0044C19.4303 24.8291 19.2988 24.5661 19.2988 24.3032C19.2988 24.0402 19.3865 23.7773 19.6056 23.602C20 23.2075 20.6136 23.2075 21.008 23.602C21.4024 23.9964 21.4024 24.61 21.008 25.0044Z" fill="white"/>
</g>
<defs>
<clipPath id="clip0">
<rect width="168" height="37.3376" fill="white"/>
</clipPath>
</defs>
</svg>
